<?xml version="1.0" encoding="UTF-8"?>
<svg width="24px" height="24px" viewBox="0 0 24 24" version="1.1" xmlns="http://www.w3.org/2000/svg" xmlns:xlink="http://www.w3.org/1999/xlink">
    <title>返回@3x</title>
    <g id="控件" stroke="none" stroke-width="1" fill="none" fill-rule="evenodd">
        <g id="tittle" transform="translate(-20.000000, -10.000000)">
            <g id="返回" transform="translate(20.000000, 10.000000)">
                <rect id="矩形备份" x="0" y="0" width="24" height="24"></rect>
                <path d="M10.8465923,8.34479085 C10.8501668,8.34890961 10.8537069,8.35305803 10.8572124,8.35723567 L10.8678172,8.36987395 C11.2186503,8.78798065 11.1694269,9.41016828 10.7572139,9.76790777 L8.637,11.6069015 L19,11.6070315 C19.5522847,11.6070315 20,12.0547468 20,12.6070315 C20,13.1593163 19.5522847,13.6070315 19,13.6070315 L6,13.6070315 C5.44771525,13.6070315 5,13.1593163 5,12.6070315 C5,12.480563 5.02347691,12.3595777 5.06631036,12.2481962 C5.12005431,12.0810859 5.21896925,11.9265023 5.36094421,11.8032892 L9.45917856,8.24663242 C9.869408,7.89061439 10.4905743,7.93456142 10.8465923,8.34479085 Z" id="形状结合" fill="#FFFFFF"></path>
            </g>
        </g>
    </g>
</svg>