<?xml version="1.0" encoding="UTF-8"?>
<svg width="36px" height="36px" viewBox="0 0 36 36" version="1.1" xmlns="http://www.w3.org/2000/svg" xmlns:xlink="http://www.w3.org/1999/xlink">
    <title>矩形</title>
    <g id="页面-1" stroke="none" stroke-width="1" fill="none" fill-rule="evenodd">
        <g id="首页" transform="translate(-323.000000, -57.000000)">
            <g id="编组-2" transform="translate(323.000000, 57.000000)">
                <rect id="矩形" fill="#FFFFFF" x="0" y="0" width="36" height="36" rx="12"></rect>
                <path d="M11.25,11 L24.75,11 C25.4403559,11 26,11.5596441 26,12.25 C26,12.9403559 25.4403559,13.5 24.75,13.5 L11.25,13.5 C10.5596441,13.5 10,12.9403559 10,12.25 C10,11.5596441 10.5596441,11 11.25,11 Z M11.25,17 L24.75,17 C25.4403559,17 26,17.5596441 26,18.25 C26,18.9403559 25.4403559,19.5 24.75,19.5 L11.25,19.5 C10.5596441,19.5 10,18.9403559 10,18.25 C10,17.5596441 10.5596441,17 11.25,17 Z M11.25,23 L24.75,23 C25.4403559,23 26,23.5596441 26,24.25 C26,24.9403559 25.4403559,25.5 24.75,25.5 L11.25,25.5 C10.5596441,25.5 10,24.9403559 10,24.25 C10,23.5596441 10.5596441,23 11.25,23 Z" id="形状结合" fill="#142B0B"></path>
            </g>
        </g>
    </g>
</svg>