<?xml version="1.0" encoding="UTF-8"?>
<svg width="24px" height="24px" viewBox="0 0 24 24" version="1.1" xmlns="http://www.w3.org/2000/svg" xmlns:xlink="http://www.w3.org/1999/xlink">
    <title>编组 21备份</title>
    <g id="页面-1" stroke="none" stroke-width="1" fill="none" fill-rule="evenodd">
        <g id="笔记详情" transform="translate(-335.000000, -63.000000)" fill-rule="nonzero" stroke="#111111">
            <g id="标题栏" transform="translate(0.000000, 53.000000)">
                <g id="编组-21备份" transform="translate(335.000000, 10.000000)">
                    <path d="M21.6888889,11.4645164 L21.6888889,11.4645164 L21.6888889,16.5333333 C21.6888889,19.6752199 19.1418866,22.2222222 16,22.2222222 L7.46666667,22.2222222 C4.32478009,22.2222222 1.77777778,19.6752199 1.77777778,16.5333333 L1.77777778,8 C1.77777778,4.85811342 4.32478009,2.31111111 7.46666667,2.31111111 L11.0368886,2.31111111 L11.0368886,2.31111111" id="路径" stroke-width="2.5" stroke-linecap="round" stroke-linejoin="round"></path>
                    <path d="M20.1323916,5.08075926 L17.6121226,2.40279795 C17.2721656,2.04148211 17.2894569,1.47296617 17.650744,1.13298204 C18.0120311,0.792997903 18.5805019,0.810290642 18.920459,1.17160645 L22.8652277,5.36340633 C23.4047294,5.93648525 22.9981571,6.87724492 22.2110596,6.87724492 L17.7025385,6.87724492 C15.4101057,6.87724492 13.5287361,8.87613465 13.5287361,11.3684591 L13.5287361,16.7579161 C13.5287361,17.2540019 13.126611,17.6561589 12.6305647,17.6561589 C12.1345183,17.6561589 11.7323933,17.2540019 11.7323933,16.7579161 L11.7323933,11.3684591 C11.7323933,7.90752945 14.3927769,5.08075926 17.7025385,5.08075926 L20.1323916,5.08075926 L20.1323916,5.08075926 Z" id="路径" stroke-width="0.7" fill="#111111"></path>
                </g>
            </g>
        </g>
    </g>
</svg>