<?xml version="1.0" encoding="UTF-8"?>
<svg width="65px" height="78px" viewBox="0 0 65 78" version="1.1" xmlns="http://www.w3.org/2000/svg" xmlns:xlink="http://www.w3.org/1999/xlink">
    <title>编组 14</title>
    <defs>
        <circle id="path-1" cx="39" cy="38" r="26"></circle>
        <filter x="-38.5%" y="-36.5%" width="176.9%" height="176.9%" filterUnits="objectBoundingBox" id="filter-2">
            <feOffset dx="0" dy="1" in="SourceAlpha" result="shadowOffsetOuter1"></feOffset>
            <feGaussianBlur stdDeviation="6.5" in="shadowOffsetOuter1" result="shadowBlurOuter1"></feGaussianBlur>
            <feColorMatrix values="0 0 0 0 0   0 0 0 0 0   0 0 0 0 0  0 0 0 0.0777741546 0" type="matrix" in="shadowBlurOuter1"></feColorMatrix>
        </filter>
    </defs>
    <g id="页面-1" stroke="none" stroke-width="1" fill="none" fill-rule="evenodd">
        <g id="首页" transform="translate(-310.000000, -851.000000)">
            <g id="编组-14" transform="translate(310.000000, 851.000000)">
                <g id="椭圆形">
                    <use fill="black" fill-opacity="1" filter="url(#filter-2)" xlink:href="#path-1"></use>
                    <use fill="#FFFFFF" fill-rule="evenodd" xlink:href="#path-1"></use>
                </g>
                <path d="M39,12 L65,12 L65,12 L65,64 L39,64 C24.6405965,64 13,52.3594035 13,38 C13,23.6405965 24.6405965,12 39,12 Z" id="矩形" fill="#FFFFFF"></path>
                <g id="笔记本、笔记" transform="translate(27.625000, 25.812500)" fill="#2C2C2C" fill-rule="nonzero">
                    <path d="M18.1712959,0 C20.7000444,0 22.75,2.07867796 22.75,4.64285715 L22.75,19.7321428 C22.75,22.296322 20.7000444,24.375 18.1712959,24.375 L6.15219768,24.375 C3.62344923,24.375 1.57349358,22.296322 1.57349358,19.7321428 L1.57349358,4.64285715 C1.57349358,2.07867795 3.62344923,0 6.15219768,0 L18.1712959,0 L18.1712959,0 Z M18.1712959,2.03125001 L6.15219768,2.03125001 C4.77695147,2.03125001 3.64432768,3.12685478 3.5795383,4.51982143 L3.57667663,4.64285715 L3.57667663,19.7321428 C3.57667663,21.1266579 4.6571428,22.2751511 6.03086201,22.3408482 L6.15219768,22.34375 L18.1712959,22.34375 C19.5465421,22.34375 20.6791659,21.2481452 20.7439553,19.8551786 L20.746817,19.7321428 L20.746817,4.64285715 C20.746817,3.2483421 19.6663508,2.09984892 18.2926316,2.03415178 L18.1712959,2.03125001 Z" id="形状"></path>
                    <path d="M4.14901463,7.10937499 C4.6859604,7.10961979 5.12719562,7.53917066 5.14930628,8.08317791 C5.17141693,8.62718517 4.76653624,9.09209603 4.2314313,9.13714286 L4.14901463,9.140625 L1.00115558,9.140625 C0.464209801,9.1403802 0.0229745806,8.71082933 0.000863929118,8.16682208 C-0.0212467223,7.62281482 0.383633962,7.15790396 0.918738901,7.11285713 L1.00115558,7.10937499 L4.14901463,7.10937499 Z M4.14901463,15.234375 C4.6859604,15.2346198 5.12719562,15.6641707 5.14930628,16.2081779 C5.17141693,16.7521852 4.76653624,17.217096 4.2314313,17.2621429 L4.14901463,17.265625 L1.00115558,17.265625 C0.464209801,17.2653802 0.0229745806,16.8358293 0.000863929118,16.2918221 C-0.0212467223,15.7478148 0.383633962,15.282904 0.918738901,15.2378571 L1.00115558,15.234375 L4.14901463,15.234375 Z M16.7404509,7.68973215 C17.2616462,7.68973215 17.6957215,8.09508012 17.7386084,8.62178571 L17.7420424,8.70535714 L17.7420424,15.6696429 C17.741801,16.2141119 17.3181855,16.6615293 16.7816951,16.6839498 C16.2452047,16.7063702 15.7867178,16.2958167 15.7422934,15.7532143 L15.7388594,15.6696429 L15.7388594,8.70535714 C15.7388594,8.14473214 16.1875724,7.68973215 16.7404509,7.68973215 Z" id="形状"></path>
                </g>
            </g>
        </g>
    </g>
</svg>