<?xml version="1.0" encoding="UTF-8"?>
<svg width="60px" height="60px" viewBox="0 0 60 60" version="1.1" xmlns="http://www.w3.org/2000/svg" xmlns:xlink="http://www.w3.org/1999/xlink">
    <title>编组 2</title>
    <defs>
        <filter x="-26.7%" y="-26.7%" width="153.3%" height="153.3%" filterUnits="objectBoundingBox" id="filter-1">
            <feOffset dx="0" dy="2" in="SourceAlpha" result="shadowOffsetOuter1"></feOffset>
            <feGaussianBlur stdDeviation="3" in="shadowOffsetOuter1" result="shadowBlurOuter1"></feGaussianBlur>
            <feColorMatrix values="0 0 0 0 0.209871596   0 0 0 0 0.171457715   0 0 0 0 0.0688165035  0 0 0 0.05 0" type="matrix" in="shadowBlurOuter1" result="shadowMatrixOuter1"></feColorMatrix>
            <feMerge>
                <feMergeNode in="shadowMatrixOuter1"></feMergeNode>
                <feMergeNode in="SourceGraphic"></feMergeNode>
            </feMerge>
        </filter>
    </defs>
    <g id="页面-1" stroke="none" stroke-width="1" fill="none" fill-rule="evenodd">
        <g id="笔记" transform="translate(-311.000000, -45.000000)">
            <g id="编组-2" filter="url(#filter-1)" transform="translate(311.000000, 45.000000)">
                <rect id="矩形" fill="#FFFFFF" x="12" y="12" width="36" height="36" rx="12"></rect>
                <path d="M23.25,23 L36.75,23 C37.4403559,23 38,23.5596441 38,24.25 C38,24.9403559 37.4403559,25.5 36.75,25.5 L23.25,25.5 C22.5596441,25.5 22,24.9403559 22,24.25 C22,23.5596441 22.5596441,23 23.25,23 Z M23.25,29 L36.75,29 C37.4403559,29 38,29.5596441 38,30.25 C38,30.9403559 37.4403559,31.5 36.75,31.5 L23.25,31.5 C22.5596441,31.5 22,30.9403559 22,30.25 C22,29.5596441 22.5596441,29 23.25,29 Z M23.25,35 L36.75,35 C37.4403559,35 38,35.5596441 38,36.25 C38,36.9403559 37.4403559,37.5 36.75,37.5 L23.25,37.5 C22.5596441,37.5 22,36.9403559 22,36.25 C22,35.5596441 22.5596441,35 23.25,35 Z" id="形状结合" fill="#142B0B"></path>
            </g>
        </g>
    </g>
</svg>