<?xml version="1.0" encoding="UTF-8"?>
<svg width="125px" height="30px" viewBox="0 0 125 30" version="1.1" xmlns="http://www.w3.org/2000/svg" xmlns:xlink="http://www.w3.org/1999/xlink">
    <title>编组 12</title>
    <g id="页面-1" stroke="none" stroke-width="1" fill="none" fill-rule="evenodd">
        <g id="首页" transform="translate(-234.000000, -1063.000000)">
            <g id="编组-12" transform="translate(234.000000, 1063.000000)">
                <path d="M9,0 L116,0 C120.970563,-9.13077564e-16 125,4.02943725 125,9 L125,21 C125,25.9705627 120.970563,30 116,30 L9,30 C4.02943725,30 6.08718376e-16,25.9705627 0,21 L0,9 C-6.08718376e-16,4.02943725 4.02943725,9.13077564e-16 9,0 Z" id="矩形备份-7" fill="#F2F6F0"></path>
                <line x1="42" y1="9" x2="42" y2="21" id="路径-12" stroke="#B7C1B3" stroke-width="0.5" opacity="0.400000006"></line>
                <line x1="82" y1="9" x2="82" y2="21" id="路径-12备份" stroke="#B7C1B3" stroke-width="0.5" opacity="0.400000006"></line>
                <g id="编组-11" opacity="0.800000012" transform="translate(15.000000, 8.000000)" stroke="#82907D" stroke-width="1.3">
                    <path d="M4,11 L2,11 C0.8954305,11 0,10.1045695 0,9 L0,2 C0,0.8954305 0.8954305,0 2,0 L9,0 C10.1045695,0 11,0.8954305 11,2 L11,4" id="路径"></path>
                    <rect id="矩形备份-6" x="4" y="4" width="11" height="11" rx="2"></rect>
                </g>
                <g id="点赞" opacity="0.800000012" transform="translate(54.000000, 7.000000)" fill="#82907D" fill-rule="nonzero">
                    <path d="M15.4291866,6.22979884 C14.9088606,5.55153995 14.1167491,5.15513126 13.2584794,5.14240255 L10.9196943,5.10603478 C11.0949244,4.2841232 11.1592946,3.54585748 11.111017,2.90214797 C11.053799,2.13296966 10.8374435,1.48926014 10.4673147,0.992840095 C10.2151979,0.652801455 9.90049903,0.390953517 9.53394633,0.218206614 C9.15308913,0.0381861575 8.82050961,5.16817082e-16 8.60773024,5.16817082e-16 C7.32568982,5.16817082e-16 6.2832497,0.980111376 6.2832497,2.18388453 C6.2832497,4.14047051 5.04591083,5.7315604 3.52248205,5.7315604 L1.35892708,5.7315604 C0.609729126,5.7315604 0,6.35163087 0,7.11353563 L0,14.6180248 C0,15.3799295 0.609729126,16 1.35892708,16 L11.9442538,16 C12.58438,16 13.2119898,15.7817934 13.7126471,15.3872031 C14.2186686,14.988976 14.576281,14.4252756 14.719326,13.8015684 L15.9298439,8.52096829 C16.1140143,7.71905898 15.931632,6.88441868 15.4291866,6.22979884 Z M2.8805678,14.6889419 L1.35892708,14.6889419 C1.31958972,14.6889419 1.28740461,14.6562109 1.28740461,14.6162064 L1.28740461,7.11353563 C1.28740461,7.07353108 1.31958972,7.04080009 1.35892708,7.04080009 L2.8805678,7.04080009 L2.8805678,14.6889419 Z M14.6764125,8.22275259 L13.4658946,13.5033527 C13.3890079,13.8361177 13.1976853,14.1361518 12.9258999,14.3507217 C12.6487502,14.5689283 12.3018662,14.6889419 11.9460419,14.6889419 L4.16797241,14.6889419 L4.16797241,6.97897488 C4.50412806,6.91533129 4.82955533,6.80077282 5.14425424,6.63711785 C5.62881903,6.38436186 6.05974196,6.02613933 6.42987078,5.56972383 C7.1665523,4.65871122 7.57244237,3.45675645 7.57244237,2.18024776 C7.57244237,1.69837482 8.03733847,1.30560291 8.6095183,1.30560291 C8.65958403,1.30560291 9.09944727,1.31833163 9.44096711,1.77838391 C9.95771701,2.47482668 9.97202151,3.82043414 9.48030447,5.56608706 C9.42487455,5.76247301 9.46242385,5.97340607 9.582224,6.13706103 C9.70202415,6.30071599 9.88977066,6.39890897 10.0900336,6.40072736 L13.2423868,6.44982384 C13.709071,6.4570974 14.1382059,6.66984885 14.4189316,7.03534493 C14.6799886,7.38083873 14.7729678,7.80270485 14.6764125,8.22275259 Z" id="形状"></path>
                </g>
                <g id="点赞备份" opacity="0.800000012" transform="translate(102.000000, 15.000000) scale(1, -1) translate(-102.000000, -15.000000) translate(94.000000, 7.000000)" fill="#82907D" fill-rule="nonzero">
                    <path d="M15.4291866,6.22979884 C14.9088606,5.55153995 14.1167491,5.15513126 13.2584794,5.14240255 L10.9196943,5.10603478 C11.0949244,4.2841232 11.1592946,3.54585748 11.111017,2.90214797 C11.053799,2.13296966 10.8374435,1.48926014 10.4673147,0.992840095 C10.2151979,0.652801455 9.90049903,0.390953517 9.53394633,0.218206614 C9.15308913,0.0381861575 8.82050961,5.16817082e-16 8.60773024,5.16817082e-16 C7.32568982,5.16817082e-16 6.2832497,0.980111376 6.2832497,2.18388453 C6.2832497,4.14047051 5.04591083,5.7315604 3.52248205,5.7315604 L1.35892708,5.7315604 C0.609729126,5.7315604 0,6.35163087 0,7.11353563 L0,14.6180248 C0,15.3799295 0.609729126,16 1.35892708,16 L11.9442538,16 C12.58438,16 13.2119898,15.7817934 13.7126471,15.3872031 C14.2186686,14.988976 14.576281,14.4252756 14.719326,13.8015684 L15.9298439,8.52096829 C16.1140143,7.71905898 15.931632,6.88441868 15.4291866,6.22979884 Z M2.8805678,14.6889419 L1.35892708,14.6889419 C1.31958972,14.6889419 1.28740461,14.6562109 1.28740461,14.6162064 L1.28740461,7.11353563 C1.28740461,7.07353108 1.31958972,7.04080009 1.35892708,7.04080009 L2.8805678,7.04080009 L2.8805678,14.6889419 Z M14.6764125,8.22275259 L13.4658946,13.5033527 C13.3890079,13.8361177 13.1976853,14.1361518 12.9258999,14.3507217 C12.6487502,14.5689283 12.3018662,14.6889419 11.9460419,14.6889419 L4.16797241,14.6889419 L4.16797241,6.97897488 C4.50412806,6.91533129 4.82955533,6.80077282 5.14425424,6.63711785 C5.62881903,6.38436186 6.05974196,6.02613933 6.42987078,5.56972383 C7.1665523,4.65871122 7.57244237,3.45675645 7.57244237,2.18024776 C7.57244237,1.69837482 8.03733847,1.30560291 8.6095183,1.30560291 C8.65958403,1.30560291 9.09944727,1.31833163 9.44096711,1.77838391 C9.95771701,2.47482668 9.97202151,3.82043414 9.48030447,5.56608706 C9.42487455,5.76247301 9.46242385,5.97340607 9.582224,6.13706103 C9.70202415,6.30071599 9.88977066,6.39890897 10.0900336,6.40072736 L13.2423868,6.44982384 C13.709071,6.4570974 14.1382059,6.66984885 14.4189316,7.03534493 C14.6799886,7.38083873 14.7729678,7.80270485 14.6764125,8.22275259 Z" id="形状"></path>
                </g>
            </g>
        </g>
    </g>
</svg>